<svg width="122" height="48" viewBox="0 0 122 48" fill="none" xmlns="http://www.w3.org/2000/svg">
<path d="M49.1923 26.0897C49.2274 22.0291 49.2099 17.0867 49.2099 13.0174C49.2099 8.94817 49.2185 4.87861 49.2012 0.809346C49.2012 0.255585 49.333 0.0885922 49.9044 0.0972401C52.6908 0.123482 55.4855 0.105889 58.2806 0.105889C59.5903 0.105889 60.8648 0.316717 62.0952 0.738673C65.1362 1.78476 67.0701 3.83222 67.5183 7.06681C68.1069 11.3472 66.5339 14.8451 62.4381 16.4011C61.0756 16.9197 59.6517 17.1395 58.1929 17.1747C57.2702 17.1923 56.347 17.2009 55.4244 17.166C54.932 17.1484 54.7916 17.3154 54.8002 17.7988C54.8178 20.2685 54.7827 23.62 54.8265 26.0897H49.1923ZM54.8086 8.5611C54.8086 9.68592 54.8172 10.8024 54.7999 11.9186C54.7913 12.2877 54.8966 12.4547 55.3009 12.4461C56.3995 12.4198 57.4894 12.4723 58.5794 12.4198C60.5481 12.3143 61.8313 11.0049 61.9631 9.01854C62.1125 6.84763 61.0667 5.3447 59.1066 4.9138C57.8058 4.6323 56.4785 4.83447 55.1691 4.77334C54.7824 4.75575 54.8089 5.01071 54.8089 5.26567C54.8089 6.36425 54.8089 7.46283 54.8086 8.5611Z" fill="white"/>
<path d="M7.24153 26.0901C7.25913 19.5246 7.24153 12.1828 7.26778 5.62599C7.26778 4.96696 7.12732 4.73824 6.42386 4.75583C4.53416 4.80831 2.6358 4.75583 0.73745 4.78207C0.209931 4.79072 -0.018492 4.6941 0.0166959 4.09651C0.0691794 2.9541 0.0429375 1.80244 0.0253435 0.651084C0.0166957 0.246723 0.139555 0.0973269 0.570159 0.106273C6.88071 0.114921 13.1916 0.114921 19.4935 0.106273C20.021 0.106273 20.1 0.317101 20.0648 0.862213C20.0031 1.88177 19.9855 2.91026 20.0648 3.92952C20.1173 4.59749 20.0031 4.80831 19.3793 4.79967C17.4368 4.76448 15.4856 4.80831 13.5431 4.77342C12.9718 4.76478 12.7872 4.88764 12.7961 5.50313C12.8313 8.82569 12.8137 12.139 12.8137 15.4616C12.8137 18.7841 12.8051 22.7654 12.8224 26.0877L7.24153 26.0901Z" fill="white"/>
<path d="M110.873 45.9345C110.893 44.187 110.869 41.7868 110.889 40.0405C110.894 39.5771 110.772 39.1215 110.534 38.7234C109.279 36.6216 108.033 34.5151 106.787 32.4077C106.206 31.4246 105.179 29.995 104.598 29.0118C104.498 28.8424 104.407 28.6674 104.246 28.3766C105.627 28.3766 106.927 28.3686 108.226 28.382C108.538 28.3856 108.574 28.7142 108.686 28.9125C109.26 29.93 110.277 31.3956 110.852 32.4265C111.463 33.5236 112.08 34.6335 112.712 35.7679C113.322 34.6827 113.893 33.6685 114.462 32.6541C114.506 32.575 114.55 32.4963 114.594 32.4173C115.172 31.39 115.979 29.9118 116.529 28.8705C116.73 28.4917 116.957 28.34 117.395 28.3513C118.613 28.3838 119.833 28.3626 121.052 28.3626L120.949 28.5296L120.725 28.8526C120.678 28.9179 120.637 28.9742 120.6 29.0231C120.299 29.4192 119.807 30.2923 119.554 30.7205C119.214 31.2984 118.885 31.8629 118.563 32.4203C117.326 34.5599 116.184 36.5912 114.822 38.8671C114.62 39.2046 114.543 39.5365 114.546 39.9224C114.558 41.7185 114.533 44.1396 114.563 45.9345" fill="white"/>
<path d="M90.3485 43.9688C90.3804 43.3023 90.1732 42.6248 89.7232 42.077C88.8414 41.0044 87.2839 40.6698 86.177 41.4934C85.3837 41.9944 85.6673 41.9944 85.3837 41.9944C84.9039 41.9944 84.4489 41.9935 83.9565 41.9935C84.2318 40.8401 85.7246 39.7519 87.1703 39.6505C89.433 39.4934 91.2449 40.8389 91.6949 43.0122C91.7492 43.2737 91.7748 43.5334 91.7814 43.7887C91.7829 43.8543 91.7763 43.9241 91.7751 43.9891" fill="white"/>
<path d="M91.7798 43.6567C91.787 43.9797 91.7563 44.3068 91.6895 44.628C91.2398 46.8001 89.4288 48.1453 87.1672 47.9878C85.7219 47.8867 84.23 46.7992 83.9547 45.6463C84.447 45.6463 84.9018 45.6454 85.3816 45.6454C85.6652 45.6454 85.3816 45.6454 86.1745 46.1461C87.2809 46.9695 88.8378 46.6349 89.7189 45.5625C90.1686 45.015 90.3759 44.3378 90.344 43.6716" fill="white"/>
<path d="M52.4397 37.1402C52.4397 34.46 52.4629 31.7788 52.4227 29.0986C52.4128 28.4566 52.6395 28.3612 53.2034 28.3629C57.9728 28.3829 62.7434 28.3728 67.5129 28.3755C68.5903 28.3755 69.308 28.9835 69.3379 29.9052C69.3695 30.8947 68.6463 31.5609 67.4616 31.5656C64.1966 31.5793 60.9319 31.5704 57.6668 31.5704C56.7195 31.5704 56.2459 32.0499 56.2459 33.0086C56.2459 35.9957 56.2584 38.9825 56.2343 41.9693C56.2295 42.5123 56.3297 42.7401 56.936 42.7085C58.028 42.6519 59.1268 42.7482 60.1956 42.4091C62.6716 41.6231 64.0469 39.5777 63.9515 36.769C63.9246 35.9611 64.1861 35.2985 64.8866 34.8891C65.5531 34.4996 66.2518 34.5277 66.9159 34.944C67.4538 35.2812 67.6993 35.7813 67.7452 36.4102C68.0887 41.1913 65.1565 44.9346 60.424 45.6867C57.9164 46.0851 55.3829 45.7946 52.8628 45.8772C52.36 45.8936 52.4418 45.5561 52.4418 45.2585C52.4409 42.552 52.4418 39.8458 52.4418 37.1402H52.4397Z" fill="white"/>
<path d="M98.9541 45.9509C98.9788 43.2814 98.9654 39.9141 98.9654 37.244V36.3416C98.5014 36.7695 98.143 37.0612 97.8293 37.3952C96.7879 38.5024 95.7424 39.6066 94.7408 40.7496C94.3543 41.1907 94.1277 41.1442 93.7648 40.7347C92.7577 39.5968 91.7185 38.2451 90.679 37.1369C90.3751 36.8128 90.0277 36.5289 89.5905 36.1245V39.4555C88.486 39.1012 87.4608 38.9458 86.4162 39.2243C86.1666 39.2911 86.0446 39.2425 86.0446 38.9554C86.0491 35.4461 86.0473 31.9378 86.0473 28.4187L86.0464 28.4196C88.6357 30.9615 91.1743 33.6682 93.6741 36.1717C94.1116 36.6091 94.3173 36.7087 94.8013 36.2068C97.1058 33.8224 99.4592 31.4851 101.799 29.1344C101.967 28.9656 102.096 28.7408 102.36 28.6644C102.544 28.8594 102.453 29.0932 102.454 29.2996C102.461 34.5891 102.446 40.6617 102.475 45.9503L98.9541 45.9509Z" fill="white"/>
<path d="M31.6485 41.4C31.6485 42.4852 31.644 43.4835 31.6518 44.4822C31.6536 44.7118 31.5635 44.8436 31.3563 44.9319C28.0244 46.3508 22.9383 46.6498 19.8266 42.9676C17.4359 40.1395 17.0139 36.8781 18.4537 33.5081C19.8874 30.1512 22.6392 28.5591 26.2311 28.3769C27.8718 28.2937 29.4537 28.5806 30.9704 29.2402C31.3855 29.4206 31.5805 29.6276 31.5581 30.1071C31.5176 30.9895 31.5468 31.8751 31.5468 32.8556C30.1781 32.2228 28.8114 31.825 27.3559 31.6992C24.0649 31.4159 21.456 33.69 21.3313 37.0149C21.2117 40.2114 23.6898 42.653 26.9626 42.5666C28.5728 42.5233 30.1008 42.1321 31.6485 41.4Z" fill="white"/>
<path d="M8.37232 28.3635L16.9179 45.9103C15.6422 45.9103 14.4637 45.9049 13.2858 45.9139C12.9766 45.9157 12.9396 45.9145 12.8507 45.7227C12.5254 45.0234 12.0471 44.0871 11.7509 43.3753C11.6051 43.0255 11.3994 42.9068 11.0201 42.9113C9.25052 42.9316 7.4801 42.9295 5.71027 42.9131C5.33871 42.9095 5.1243 43.001 4.98355 43.3744C4.73068 44.0483 4.39758 44.6924 4.13129 45.3619C3.97593 45.7528 3.77911 45.9461 3.31332 45.9279C2.25113 45.8867 1.18714 45.9145 0 45.9145L8.37351 28.3626L8.37232 28.3635ZM6.3523 40.285H10.3792C9.70796 38.6446 9.06027 37.0603 8.37411 35.3823C7.68079 37.0632 7.02415 38.6553 6.3523 40.285Z" fill="white"/>
<path d="M33.1066 45.907C35.9052 40.0411 38.7948 34.2822 41.6187 28.3629C42.3043 29.7934 42.9138 30.8314 43.5237 32.1045C45.586 36.4135 47.6365 40.9652 49.7218 45.2626C50.0242 45.8856 50.2439 45.9207 49.27 45.9207C48.3984 45.8856 47.524 45.8927 46.6524 45.9207C46.2701 45.933 46.0715 45.8047 45.9266 45.449C45.6349 44.7357 45.2792 43.8107 44.9795 43.0998C44.8432 42.7765 44.6553 42.6674 44.3055 42.67C42.5107 42.6867 40.7152 42.6909 38.9203 42.6674C38.5216 42.662 38.357 42.8227 38.2219 43.1636C37.947 43.856 37.4776 44.7619 37.1895 45.4499C37.064 45.7505 36.9173 45.9243 36.5421 45.9157C35.4472 45.8876 34.3507 45.9061 33.1066 45.9061V45.907ZM41.6199 35.1348C40.9215 36.8375 40.2667 38.4323 39.6106 40.0333H43.628C42.9562 38.3956 42.3097 36.8166 41.6199 35.1348Z" fill="white"/>
<path d="M20.0763 26.0754C24.2961 17.2304 28.4403 8.92548 32.6983 0C33.7319 2.15689 34.6512 3.69562 35.5709 5.61484C38.6805 12.1121 41.7726 18.6158 44.9168 25.0961C45.3728 26.0354 45.7041 26.0885 44.2357 26.0885C42.9212 26.0357 41.6032 26.0461 40.2887 26.0885C39.7123 26.107 39.4129 25.9134 39.1943 25.377C38.7545 24.3014 38.218 23.2666 37.7662 22.1943C37.5608 21.7067 37.2775 21.5424 36.75 21.5466C34.0435 21.5719 31.3364 21.5782 28.6296 21.5427C28.0281 21.5346 27.7803 21.7771 27.5764 22.2912C27.1619 23.3352 26.6675 24.3488 26.233 25.3859C26.0436 25.8389 25.8223 26.1013 25.2567 26.0882C23.6058 26.0458 21.9523 26.0739 20.0763 26.0739V26.0751V26.0754ZM32.6998 10.1845C31.6465 12.752 30.6595 15.1567 29.6698 17.5709H35.7271C34.715 15.1015 33.7399 12.7204 32.6998 10.1845Z" fill="white"/>
<path d="M79.7918 45.3991C77.3024 45.3991 74.8133 45.4018 72.3239 45.3982C71.1589 45.3964 70.5622 44.8692 70.5634 43.8568C70.5643 42.8727 71.1872 42.2972 72.3347 42.2945C77.3132 42.285 82.2916 42.2838 87.271 42.2945C88.4027 42.2972 89.0107 42.8963 88.9925 43.9042C88.9749 44.8716 88.3723 45.3961 87.2597 45.397C84.7703 45.4006 82.2812 45.3979 79.7918 45.3979V45.3991Z" fill="white"/>
<path d="M77.5682 38.4851C75.7986 38.4851 74.0282 38.4887 72.2584 38.4833C71.2165 38.4798 70.6093 37.9764 70.5652 37.0979C70.5196 36.1896 71.1318 35.5109 72.1573 35.5031C75.7712 35.4751 79.386 35.4769 83.0005 35.4995C84.0189 35.5055 84.6648 36.1851 84.6269 37.0699C84.5899 37.9352 83.9539 38.4801 82.9522 38.4836C81.1573 38.4896 79.363 38.4854 77.5679 38.4854L77.5682 38.4851Z" fill="white"/>
<path d="M76.409 28.4869C77.7777 28.4869 79.1468 28.4815 80.5149 28.4886C81.5306 28.494 82.1634 29.0809 82.1694 30.0032C82.1753 30.9372 81.5771 31.589 80.5695 31.5989C77.7578 31.6263 74.9454 31.6278 72.1337 31.5953C71.126 31.584 70.5452 30.9241 70.5633 29.982C70.5827 29.0341 71.1785 28.4928 72.2276 28.4883C73.6211 28.483 75.0146 28.4866 76.4081 28.4866L76.409 28.4869Z" fill="white"/>
</svg>
